<svg xmlns="http://www.w3.org/2000/svg" viewBox="0 0 227.11 220.92">
  <defs>
    <style>
      .cls-1 {
        fill: #358a30;
        stroke: #fff;
        stroke-miterlimit: 10;
        stroke-width: 2px;
      }

      .cls-2 {
        font-size: 42px;
        fill: #f2f2f2;
        font-family: GillSansMT-Bold, Gill Sans MT;
        font-weight: 700;
      }
    </style>
  </defs>
  <title>logo</title>
  <g id="Layer_2" data-name="Layer 2">
    <g id="Layer_1-2" data-name="Layer 1">
      <path class="cls-1" d="M143.29,219.92c-.83-2.07-1.51-4.23-2.52-6.21-4.53-8.85-9.09-17.67-13.76-26.44-3.05-5.72-4.55-11.88-5.76-18.16-.09-.46-.11-.92-.18-1.38-.33-2.43-.32-2.31-2.63-1.45-4.28,1.58-8.58,3.16-13,4.34-1.77.48-3.82-.1-5.75-.13a13.94,13.94,0,0,0-3.36.16,17,17,0,0,1-7.71-.16c-3.63-.8-7.41-.92-11.11-1.45-4.16-.61-8.37-.54-12.5-1.71a74,74,0,0,0-10.34-1.62,50.78,50.78,0,0,0-8.39-.85c-3.66.13-7.3.82-11,1.28l-.5-1.27c2.51.3,4.19-1.2,5.93-2.57,3.57-2.8,7.24-5.47,10.68-8.41A76.47,76.47,0,0,0,58,147.27a5,5,0,0,0,.88-2.43c.28-1.61.39-3.26.62-4.89a1.46,1.46,0,0,0-1.1-1.87,46.46,46.46,0,0,1-5.94-2.1,146.74,146.74,0,0,1-20.89-12.52,79.45,79.45,0,0,0-13-7.31,5.23,5.23,0,0,0-1.3-.48c-3.32-.52-3.74-.9-5.84-4.84a12.82,12.82,0,0,1,2.64-.64c4.52-.1,8.3-2.22,12.12-4.24.46-.24.93-.46,1.38-.7,3.35-1.77,3.86-4.17,1.83-7.35A42.26,42.26,0,0,1,26,91.36c-.44-1.06-.22-2.39-.34-3.59A20.41,20.41,0,0,0,25,83.31a46.83,46.83,0,0,0-3.3-7.78,26.29,26.29,0,0,0-4.26-5.19,89.6,89.6,0,0,0-6.66-6.11c-.47-.39-1.56-.23-2.31-.07a14.51,14.51,0,0,0-2.89,1c-1.33.63-2.46.23-3.83-.55C4.7,62.33,7.08,59.44,11,59.35a8.65,8.65,0,0,1,3.73.71c4.44,2.09,9.27,2.74,13.93,4A13.93,13.93,0,0,0,37.63,64a3.59,3.59,0,0,1,2.26.09,56.71,56.71,0,0,1,6.6,2.57,6.38,6.38,0,0,0,7.34-.56c3.25-2.42,4.58-2.27,7.93,0,3.16,2.12,6.51,3.9,9.2,6.7a110.11,110.11,0,0,0,9,8.47,60,60,0,0,0,7,4.64c.83.52,2.51-.51,2.88-1.86a22.8,22.8,0,0,0,.67-4c.24-2.51.46-5,.49-7.54a3.1,3.1,0,0,0-1-2.34,4.37,4.37,0,0,1-2-3q-1.18-5.41-2.22-10.88-1.6-8.49-3.11-17a7.8,7.8,0,0,1,.08-1.73,5.5,5.5,0,0,1,1.56.4c4,2.5,8.53,2.36,12.91,2.91a3.39,3.39,0,0,0,3.28-2.15Q102.29,34.85,104,31a3.49,3.49,0,0,0,.28-1,5.65,5.65,0,0,1,3-4.42c.88-.54,1.71-1.14,2.62-1.63,2.46-1.33,3.17-3.78,3.91-6.16a37.36,37.36,0,0,0,.89-4.23,17.09,17.09,0,0,1,2.9-6.41c1.12-1.71,2.18-3.46,3.28-5.18a.79.79,0,0,1,.49-.33c2-.22,4-.48,5.94-.57.46,0,.95.59,1.43.91A6.72,6.72,0,0,1,127.55,3c-1.52.85-3.29,1-4.8,2.12a3.8,3.8,0,0,0-1.78,4,30.27,30.27,0,0,0,5.08,13.26,18.8,18.8,0,0,0,6.07,5.31,14.25,14.25,0,0,1,5.1,4.95,31.06,31.06,0,0,0,6.78,7.5,16.87,16.87,0,0,1,2.3,2.47c.61.73.36,1.33-.47,1.7-.63.28-1.27.52-1.9.78l.23.63a29.58,29.58,0,0,0,4.9-1.72c2.05-1.15,3.88-2.69,5.84-4a9.61,9.61,0,0,1,1.74-.75,7.4,7.4,0,0,1,.47,1.68A7.67,7.67,0,0,1,156.9,43c-1.2,5.06-.36,10.14-.24,15.22,0,.05,0,.12,0,.15,2.18,2.15.41,4.46.14,6.64a47.87,47.87,0,0,1-1.65,6.73,7.63,7.63,0,0,1-1,1.67c-.36.61-1,1.18-1.06,1.83-.59,3.8-1.25,7.61-1.51,11.44a13.13,13.13,0,0,0,1.08,5.22c.74,2,2.46,2.33,4.46,1.29,2.65-1.37,5.34-2.66,8-4.1,2.34-1.29,4.57-2.77,6.89-4.08s4.48-1.77,6.94-.07a6.83,6.83,0,0,0,4.13.87,111.3,111.3,0,0,0,13.8-1.47c3.32-.66,6.47-2.24,9.67-3.47,1.72-.67,3.36-1.57,5.11-2.16,3.88-1.3,7.8-2.48,11.71-3.69a2.32,2.32,0,0,1,1.49.08c-1.09.67-2.85,1.14-3.14,2.06-.62,2-2.22,2.66-3.52,3.71S215,82.83,213.59,84a20.6,20.6,0,0,0-6,8.87c-.93,2.38-1.59,4.88-2.33,7.34a7.59,7.59,0,0,0-.44,2.42c.22,3.57-1.72,6.23-3.54,9a45.26,45.26,0,0,0-3.85,6.62c-1.25,2.87.16,5.27,2,7.44a22,22,0,0,0,10,6.71,10.22,10.22,0,0,1,1.34.74,8.42,8.42,0,0,1-1.71,1c-2,.58-4.05,1.14-6.11,1.58-3.86.84-7.25,2.75-10.81,4.34-4.34,1.93-8.27,4.85-13.09,5.71-1.79.32-3.54.88-5.29,1.35a7.74,7.74,0,0,0-1.24.61,11.53,11.53,0,0,0,4.53,6.2c4,2.81,7.84,5.82,11.74,8.77a10.52,10.52,0,0,1,1.17,1.28,4,4,0,0,1-1.2.26c-6-1-11.33,1.24-16.77,3.13-4,1.38-7.87,3.26-12,3.89-4.47.69-8.9,1.93-13.58,1.59-3.22-.23-6.49,0-9.61-1a39.71,39.71,0,0,1-11.62-5.54,17,17,0,0,0-1.66-1l-.48.19c.17,1.75.22,3.53.51,5.27,1.33,8,4.82,15.27,8.46,22.45,4.15,8.18,8.21,16.39,12.29,24.6a20.18,20.18,0,0,1,.72,2Z"/>
      <text class="cls-2" transform="translate(44.73 129.18)">SÉPAQ</text>
    </g>
  </g>
</svg>
