<svg xmlns="http://www.w3.org/2000/svg" viewBox="0 0 223.09 218.92">
  <defs>
    <style>
      .cls-1 {
        fill: #358a30;
      }

      .cls-2 {
        font-size: 42px;
        fill: #f2f2f2;
        font-family: GillSansMT-Bold, Gill Sans MT;
        font-weight: 700;
      }
    </style>
  </defs>
  <title>logo_1</title>
  <g id="Layer_2" data-name="Layer 2">
    <g id="Layer_1-2" data-name="Layer 1">
      <path class="cls-1" d="M141.52,218.92c-.84-2.07-1.51-4.23-2.53-6.21-4.52-8.85-9.08-17.67-13.75-26.44-3-5.72-4.56-11.88-5.76-18.16-.09-.46-.12-.92-.18-1.38-.34-2.43-.33-2.31-2.64-1.45-4.28,1.58-8.57,3.16-13,4.34-1.77.48-3.83-.1-5.75-.13a13.94,13.94,0,0,0-3.36.16,17,17,0,0,1-7.71-.16c-3.64-.8-7.42-.92-11.12-1.45-4.15-.61-8.37-.54-12.49-1.71a74.1,74.1,0,0,0-10.35-1.62,50.66,50.66,0,0,0-8.38-.85c-3.66.13-7.31.82-11,1.28L33,163.87c2.51.3,4.18-1.2,5.93-2.57,3.57-2.8,7.23-5.47,10.68-8.41a76.36,76.36,0,0,0,6.6-6.62,5,5,0,0,0,.89-2.43c.28-1.61.38-3.26.61-4.89a1.44,1.44,0,0,0-1.09-1.87,47.15,47.15,0,0,1-5.95-2.1,147.2,147.2,0,0,1-20.88-12.52,79.87,79.87,0,0,0-13-7.31,5.23,5.23,0,0,0-1.3-.48c-3.32-.52-3.74-.9-5.84-4.84a12.66,12.66,0,0,1,2.64-.64c4.51-.1,8.29-2.22,12.12-4.24l1.38-.7c3.35-1.77,3.85-4.17,1.82-7.35a42.2,42.2,0,0,1-3.39-6.54c-.44-1.06-.22-2.39-.35-3.59a20.41,20.41,0,0,0-.61-4.46A46.83,46.83,0,0,0,20,74.53a26.64,26.64,0,0,0-4.26-5.19c-2.11-2.15-4.35-4.18-6.66-6.11-.47-.39-1.56-.23-2.31-.07a14.07,14.07,0,0,0-2.89,1c-1.34.63-2.47.23-3.83-.55,2.92-2.33,5.31-5.22,9.26-5.31a8.66,8.66,0,0,1,3.74.71c4.44,2.09,9.27,2.74,13.93,4A13.9,13.9,0,0,0,35.85,63a3.58,3.58,0,0,1,2.26.09,56.86,56.86,0,0,1,6.61,2.57,6.36,6.36,0,0,0,7.33-.56c3.25-2.42,4.58-2.27,7.94,0,3.15,2.12,6.51,3.9,9.2,6.7a111.65,111.65,0,0,0,8.94,8.47,60,60,0,0,0,7.05,4.64c.84.52,2.52-.51,2.89-1.86a22.8,22.8,0,0,0,.67-4c.23-2.51.46-5,.49-7.54a3.1,3.1,0,0,0-1-2.34,4.33,4.33,0,0,1-2-3q-1.19-5.41-2.22-10.88-1.61-8.49-3.11-17A7.24,7.24,0,0,1,81,36.58a5.43,5.43,0,0,1,1.55.4c4,2.5,8.54,2.36,12.92,2.91a3.39,3.39,0,0,0,3.28-2.15c1.16-2.59,2.29-5.18,3.42-7.77a3.51,3.51,0,0,0,.29-1,5.65,5.65,0,0,1,3-4.42c.87-.54,1.71-1.14,2.61-1.63,2.46-1.33,3.17-3.78,3.91-6.16a33.44,33.44,0,0,0,.89-4.23,17.27,17.27,0,0,1,2.91-6.41C116.92,4.37,118,2.62,119.08.9a.77.77,0,0,1,.49-.33c2-.22,4-.48,5.93-.57.47,0,1,.59,1.44.91a6.78,6.78,0,0,1-1.17,1c-1.52.85-3.28,1-4.8,2.12a3.83,3.83,0,0,0-1.78,4,30.4,30.4,0,0,0,5.08,13.26,18.91,18.91,0,0,0,6.07,5.31,14.28,14.28,0,0,1,5.11,4.95,31,31,0,0,0,6.77,7.5,16.93,16.93,0,0,1,2.31,2.47c.61.73.36,1.33-.48,1.7-.62.28-1.26.52-1.89.78l.23.63A29.47,29.47,0,0,0,147.28,43c2.06-1.15,3.89-2.69,5.85-4a9,9,0,0,1,1.74-.75,8,8,0,0,1,.47,1.68,7.32,7.32,0,0,1-.22,2.13c-1.19,5.06-.35,10.14-.24,15.22,0,.05,0,.12,0,.15,2.17,2.15.41,4.46.13,6.64a45.25,45.25,0,0,1-1.65,6.73,7.21,7.21,0,0,1-1,1.67,6.16,6.16,0,0,0-1.07,1.83c-.59,3.8-1.25,7.61-1.5,11.44a12.94,12.94,0,0,0,1.07,5.22c.75,2,2.46,2.33,4.47,1.29,2.65-1.37,5.34-2.66,8-4.1,2.34-1.29,4.57-2.77,6.9-4.08s4.47-1.77,6.93-.07a6.86,6.86,0,0,0,4.14.87,111.34,111.34,0,0,0,13.79-1.47c3.33-.66,6.47-2.24,9.67-3.47,1.73-.67,3.37-1.57,5.12-2.16,3.88-1.3,7.8-2.48,11.71-3.69a2.32,2.32,0,0,1,1.49.08c-1.1.67-2.85,1.14-3.15,2.06-.62,2-2.21,2.66-3.51,3.71s-3.18,1.92-4.61,3.08a20.52,20.52,0,0,0-5.95,8.87c-.94,2.38-1.59,4.88-2.33,7.34a7.32,7.32,0,0,0-.44,2.42c.21,3.57-1.72,6.23-3.54,9a45.26,45.26,0,0,0-3.85,6.62c-1.25,2.87.15,5.27,2,7.44a21.91,21.91,0,0,0,10,6.71,10.22,10.22,0,0,1,1.34.74,9,9,0,0,1-1.71,1c-2,.58-4.06,1.14-6.11,1.58-3.86.84-7.26,2.75-10.82,4.34-4.34,1.93-8.26,4.85-13.08,5.71-1.79.32-3.54.88-5.3,1.35a8.18,8.18,0,0,0-1.24.61,11.55,11.55,0,0,0,4.54,6.2c4,2.81,7.84,5.82,11.73,8.77a9.76,9.76,0,0,1,1.17,1.28,4,4,0,0,1-1.19.26c-6-1-11.34,1.24-16.77,3.13-4,1.38-7.88,3.26-12,3.89-4.47.69-8.89,1.93-13.58,1.59-3.22-.23-6.48,0-9.6-1a39.59,39.59,0,0,1-11.62-5.54,17.2,17.2,0,0,0-1.67-1l-.47.19c.16,1.75.22,3.53.5,5.27,1.34,8,4.82,15.27,8.47,22.45,4.14,8.18,8.2,16.39,12.28,24.6a16.18,16.18,0,0,1,.72,2Z"/>
      <text class="cls-2" transform="translate(42.95 128.18)">SÉPAQ</text>
    </g>
  </g>
</svg>
